<?xml version="1.0" encoding="utf-8"?>
<!-- Generator: Adobe Illustrator 16.0.0, SVG Export Plug-In . SVG Version: 6.00 Build 0)  -->
<!DOCTYPE svg PUBLIC "-//W3C//DTD SVG 1.1//EN" "http://www.w3.org/Graphics/SVG/1.1/DTD/svg11.dtd">
<svg version="1.1" id="圖層_1" xmlns="http://www.w3.org/2000/svg" xmlns:xlink="http://www.w3.org/1999/xlink" x="0px" y="0px"
	 width="43.541px" height="43.541px" viewBox="0 0 43.541 43.541" enable-background="new 0 0 43.541 43.541" xml:space="preserve">
<g>
	<g id="globe">
		<radialGradient id="SVGID_1_" cx="22.3994" cy="18.6543" r="25.1912" gradientUnits="userSpaceOnUse">
			<stop  offset="0" style="stop-color:#27AAE1"/>
			<stop  offset="0.1256" style="stop-color:#25A5DD"/>
			<stop  offset="0.281" style="stop-color:#2196D0"/>
			<stop  offset="0.4519" style="stop-color:#197CBB"/>
			<stop  offset="0.6341" style="stop-color:#0E599E"/>
			<stop  offset="0.8233" style="stop-color:#012D78"/>
			<stop  offset="0.8342" style="stop-color:#002A76"/>
			<stop  offset="0.8585" style="stop-color:#03357F"/>
			<stop  offset="0.9009" style="stop-color:#0C5297"/>
			<stop  offset="0.9561" style="stop-color:#1A80BE"/>
			<stop  offset="1" style="stop-color:#27AAE1"/>
		</radialGradient>
		<circle fill="url(#SVGID_1_)" cx="21.77" cy="21.771" r="21.77"/>
		<radialGradient id="SVGID_2_" cx="21.1973" cy="16.6191" r="25.5306" gradientUnits="userSpaceOnUse">
			<stop  offset="0" style="stop-color:#27AAE1"/>
			<stop  offset="0.1987" style="stop-color:#2AABE1"/>
			<stop  offset="0.3466" style="stop-color:#33AEE1"/>
			<stop  offset="0.4781" style="stop-color:#44B3E2"/>
			<stop  offset="0.6001" style="stop-color:#5ABAE3"/>
			<stop  offset="0.7154" style="stop-color:#78C4E4"/>
			<stop  offset="0.8259" style="stop-color:#9CCFE5"/>
			<stop  offset="0.9305" style="stop-color:#C6DDE7"/>
			<stop  offset="1" style="stop-color:#E6E7E8"/>
		</radialGradient>
		<path fill="url(#SVGID_2_)" d="M42.616,27.746c-0.286,0.008-0.661,0.142-0.667,0.241c-0.005,0.098-0.4,0.275-0.53,0.328
			c-0.131,0.053-0.386,0.457-0.442,0.59c-0.054,0.135-0.378,0.094-0.498,0.147c-0.118,0.053-0.365,0.252-0.366,0.371
			c-0.002,0.118-0.067,0.106-0.147-0.03c0,0,0,0-0.158,0.166c-0.186,0.208-0.186,0.208-0.186,0.208
			c-0.107,0.334-0.461,0.758-0.584,0.793c-0.122,0.033-0.143,0.623-0.143,0.858c0,0.238,0.092,0.531,0.204,0.651
			c0,0,0,0,0.024,0.188c0.041,0.375,0.041,0.375,0.041,0.375c-0.065,0.289,0.155,0.548,0.22,0.599
			c0.062,0.05,0.603-0.097,0.809-0.147c0.086-0.019,0.192-0.067,0.295-0.118c0.964-1.613,1.722-3.361,2.244-5.209
			C42.692,27.751,42.653,27.745,42.616,27.746z M6.602,28.306c-0.03,0.059,0.359,0.458,0.511,0.594
			c0.15,0.138,0.471,0.792,0.537,1.007c0.065,0.216,0.026,0.566,0.005,0.649c-0.02,0.083,0.073,0.265,0.09,0.341
			c0.012,0.074-0.134,0.717-0.078,0.975s-0.302,1.063-0.294,1.462c0.009,0.402,0.189,0.922,0.263,0.884
			c0.072-0.039,0.098,0.363-0.024,0.412c-0.123,0.048-0.264,0.366-0.196,0.383c0.069,0.016-0.005,0.329,0.015,0.457
			c0.019,0.125,0.125,0.956,0.147,1.162c0.023,0.207,0.318,0.711,0.382,0.882c0.061,0.173,0.125,0.495,0.148,0.545
			c0.024,0.05,0.055,0.101,0.058,0.103c0.006,0.003,0.243,0.09,0.312,0.143c0.071,0.051,0.537,0.02,0.69-0.013
			c0.153-0.031,0.012-0.171-0.056-0.246c-0.069-0.075-0.129-0.443-0.209-0.483c-0.08-0.034-0.112-0.505-0.043-0.608
			c0.07-0.105,0.35-0.271,0.38-0.356c0.028-0.088,0.037-0.498-0.037-0.554c-0.076-0.056,0.022-0.552-0.035-0.799
			c-0.056-0.246,0.428-0.472,0.457-0.666c0.027-0.195,0.552-0.405,0.672-0.502c0.118-0.1,0.221-0.658,0.164-0.78
			c-0.058-0.119,0.195-0.217,0.307-0.217c0.11,0,0.236-0.081,0.279-0.081c0.042-0.001,0.175-0.248,0.247-0.305
			c0.072-0.059,0.22-0.648,0.35-0.745c0.131-0.098,0.237-0.455,0.237-0.561c0-0.104,0.2-0.416,0.266-0.51
			c0.065-0.094,0.554-0.318,0.643-0.352c0.087-0.038,0.22-0.824,0.254-1.107c0.034-0.281,0.181-0.66,0.192-0.752
			c0.009-0.094,0.167-0.172,0.195-0.201c0.029-0.031,0.147-0.39,0.221-0.474c0.075-0.081,0.346-0.425,0.353-0.502
			c0.006-0.077,0.047-0.273,0.093-0.437c0,0,0,0-0.002-0.193c0.002-0.307,0.002-0.307,0.002-0.307
			c-0.086-0.236-0.349-0.532-0.415-0.467c-0.067,0.064-0.371-0.211-0.525-0.269c-0.156-0.058-0.541-0.105-0.638-0.105
			c-0.097,0-0.435-0.276-0.586-0.324c-0.15-0.047-0.535-0.12-0.607-0.165c-0.069-0.047-0.165-0.619-0.475-0.806
			c-0.311-0.188-0.854-0.625-0.915-0.786c-0.059-0.161-0.654-0.497-0.841-0.599c-0.183-0.102-0.462-0.125-0.496-0.089
			c-0.037,0.035-0.266-0.31-0.382-0.409c-0.121-0.096-0.477-0.178-0.494-0.09c-0.017,0.087-0.253,0.041-0.31-0.034
			c-0.055-0.073-0.239,0.031-0.326,0.06c-0.085,0.026-0.383,0.479-0.518,0.588c-0.138,0.108-0.3-0.101-0.39-0.14
			c-0.09-0.038-0.432,0.068-0.525,0.134c-0.093,0.065-0.31-0.479-0.258-0.73c0.049-0.251-0.225-0.75-0.439-0.764
			c-0.21-0.012-0.278-0.539-0.236-0.731c0.042-0.193-0.382-0.314-0.489-0.327c-0.108-0.015-0.373,0.258-0.418,0.39
			c-0.045,0.13-1.011-0.178-0.896-0.758c0.112-0.578,0.569-1.177,0.683-1.248c0.114-0.069,0.734-0.105,0.871-0.028
			c0.138,0.08,0.262-0.001,0.285-0.036c0.022-0.036,0.528,0.006,0.681,0.068c0.149,0.061,0.366,0.646,0.522,0.716
			c0.158,0.073,0.215-0.377,0.24-0.486c0.025-0.109-0.077-0.387-0.114-0.464c-0.039-0.079,0.25-0.788,0.488-0.908
			c0.234-0.122,0.485-0.516,0.467-0.585c-0.022-0.069,0.188-0.124,0.243-0.154c0.058-0.028-0.007-0.602,0.085-0.727
			c0.095-0.123,0.537-0.386,0.678-0.445c0.14-0.059,0.245-0.421,0.195-0.483c-0.051-0.065,0.363-0.418,0.578-0.486
			C9.037,14.8,9.224,14.99,9.17,15.019c0.043-0.023,0.339-0.177,0.466-0.26c0.147-0.098,0.003-0.366-0.094-0.446
			c-0.094-0.077-0.037-0.388,0.077-0.417c0.115-0.027,0.215-0.296,0.184-0.354c-0.03-0.059,0.475,0.047,0.667-0.096
			c0.188-0.143,0.055,0.341-0.087,0.537c-0.139,0.195,0.103,0.379,0.194,0.343c0.089-0.04,0.185,0.102,0.205,0.157
			c0.018,0.055,0.212-0.057,0.338-0.001c0.128,0.056,0.202-0.175,0.214-0.28c0.008-0.105-0.305-0.325-0.353-0.452
			c-0.048-0.127-0.07-0.866-0.076-1.018c-0.007-0.151-0.21-0.397-0.276-0.353c-0.065,0.041-0.199-0.394-0.303-0.488
			c-0.107-0.094-0.13-0.304-0.127-0.374c0.006-0.071-0.357-0.449-0.445-0.624c-0.086-0.176-0.208-0.14-0.216-0.061
			c-0.01,0.081-0.261,0.092-0.364,0.083c-0.104-0.01-0.189-0.41-0.189-0.562c0-0.15-0.466-0.176-0.543-0.299
			C8.364,9.933,8.06,9.99,8.011,9.906c-0.05-0.083-0.319-0.162-0.37-0.131c-0.056,0.032-0.029,1.117-0.081,1.409
			c-0.052,0.293-0.299,0.55-0.391,0.543c-0.089-0.006-0.036,0.208,0.027,0.188c0.064-0.018-0.176,0.321-0.208,0.543
			c-0.031,0.221-0.257-0.01-0.293-0.212c-0.037-0.202-0.258-0.474-0.298-0.405c-0.042,0.068-0.194-0.083-0.261-0.04
			c-0.065,0.043-0.482-0.242-0.65-0.333c-0.168-0.089-0.263-0.606-0.358-0.651c-0.098-0.046-0.016-0.107-0.02-0.187
			c-0.003-0.077,0.326-0.378,0.426-0.497c0.099-0.12,0.459-0.589,0.603-0.69c0.143-0.102,0.255-0.37,0.231-0.42
			C6.342,8.976,6.979,8.776,7.151,8.717c0.171-0.059,0.321-0.541,0.345-0.678C7.52,7.899,7.388,7.639,7.308,7.604
			C7.227,7.57,7.548,7.558,7.654,7.612C7.762,7.664,8.09,7.514,8.22,7.583c0.128,0.069,0.392,0.225,0.581,0.345c0,0,0,0-0.041,0.354
			C8.684,8.879,8.684,8.879,8.684,8.879c-0.502,0.208-0.647,0.567-0.473,0.56C8.388,9.43,9.19,9.786,9.417,9.948
			c0.226,0.162,0.298-0.235,0.364-0.368C9.848,9.451,9.827,9.066,9.772,8.99c-0.055-0.077,0.262-0.05,0.351,0.036
			c0.089,0.085,0.193-0.087,0.262-0.117c0.068-0.032,0.101-0.361,0.14-0.427c0.035-0.067-0.151-0.135-0.156-0.216
			c-0.006-0.083-0.368-0.24-0.483-0.296C9.767,7.914,9.741,7.665,9.798,7.623C9.856,7.579,9.758,7.263,9.7,7.159
			c-0.056-0.105-0.433-0.19-0.56-0.19c-0.125,0-0.254-0.291-0.326-0.334C8.742,6.594,8.258,6.541,8.14,6.576
			C8.02,6.61,7.8,6.233,7.6,6.348C7.397,6.463,7.191,6.213,7.1,6.163C7.007,6.114,6.535,6.621,6.539,6.976
			c0.006,0.358,0.185,0.702,0.259,0.712c0.074,0.01-0.018,0.332-0.1,0.424c-0.082,0.091-0.28-0.097-0.205-0.178
			C6.566,7.854,6.288,7.48,6.191,7.329c-0.069-0.109-0.314-0.208-0.48-0.273C5.613,7.161,5.518,7.269,5.424,7.377
			c0.037,0.129,0.08,0.297,0.038,0.426C5.393,8.02,5.21,8.053,5.2,7.959C5.194,7.917,5.103,7.886,4.995,7.871
			C2.352,11.04,0.593,14.967,0.09,19.272c0.106,0.121,0.225,0.263,0.256,0.365c0.061,0.191,0.393,0.317,0.457,0.356
			c0.061,0.038,0.083-0.367,0.038-0.472c-0.042-0.105,0.082-0.169,0.079-0.091c-0.003,0.078,0.313,0.433,0.417,0.563
			c0.104,0.127,0.211,0.959,0.312,1.138c0.1,0.178,1.059,0.549,1.369,0.615c0.308,0.064,0.698,0.411,0.759,0.51
			c0.059,0.101,0.47,0.152,0.558,0.191c0.09,0.041,0.299,0.318,0.387,0.375c0.087,0.06,0.156,0.225,0.156,0.269
			c0,0.043,0.542,0.25,0.674,0.394c0.131,0.145,0.349,0.105,0.39,0.044c0.041-0.062,0.147,0.289,0.204,0.409
			c0.056,0.121,0.069,0.418,0.026,0.466c-0.042,0.046-0.12,0.592-0.212,0.701s-0.285,0.901-0.243,1.058
			c0.042,0.157,0.296,0.48,0.407,0.529c0.109,0.047,0.062,0.217-0.024,0.229c-0.086,0.01-0.046,0.768,0.158,0.88
			C6.46,27.911,6.632,28.247,6.602,28.306z M9.169,15.02l0.001-0.001C9.164,15.022,9.162,15.023,9.169,15.02z M7.679,5.82
			c0.26-0.043,0.695-0.116,0.726-0.189c0.021-0.06,0.024-0.24-0.025-0.302C8.42,5.332,8.469,5.333,8.506,5.333
			c0.099,0,0.264-0.542,0.368-0.67c0.104-0.127,0.702-0.314,0.844-0.399c0.143-0.086,0.454-0.385,0.572-0.421
			c0.121-0.036,0.294-0.314,0.268-0.371c-0.026-0.055,0.404-0.317,0.569-0.386c0.162-0.069,0.248-0.261,0.186-0.269
			c-0.039-0.006-0.95,0.471-1.785,0.944C8.575,4.407,7.681,5.13,6.844,5.916C7.104,5.897,7.508,5.849,7.679,5.82z M23.453,32.969
			c0.278-0.165,0.755-0.866,0.909-1.014c0.156-0.149,0.269-0.68,0.303-0.795c0.03-0.116,0.269-0.304,0.357-0.33
			c0.088-0.024,0.372-1.2,0.619-1.457c0.248-0.257,0.54-1.501,0.508-1.948c-0.03-0.445,0.161-1.298,0.22-1.503
			c0.059-0.206,0.369-0.569,0.467-0.644c0.096-0.076,0.695-0.964,0.89-1.281c0.191-0.318,0.375-1.018,0.339-1.18
			c-0.036-0.165-0.454-0.277-0.531-0.197c-0.079,0.08-0.472,0.147-0.598,0.147s-0.413-0.673-0.593-0.812
			c-0.177-0.139-0.339-0.91-0.442-1.056c-0.103-0.146-0.39-0.516-0.48-0.601c-0.091-0.083-0.105-0.493-0.126-0.605
			c-0.019-0.111,0.174,0.074,0.208,0.236c0.033,0.163,0.494,0.82,0.638,1.041c0.144,0.222,0.52,0.926,0.616,1.146
			c0.097,0.219,0.935,0.109,1.206-0.019c0.273-0.13,0.612-0.348,0.625-0.422c0.011-0.078,0.447-0.276,0.566-0.373
			c0.12-0.096,0.229-0.602,0.306-0.681c0.079-0.083-0.062-0.563-0.153-0.706c-0.091-0.143-0.525-0.258-0.612-0.201
			c-0.089,0.055-0.275-0.324-0.343-0.462c-0.067-0.14-0.4-0.31-0.437-0.405c-0.033-0.096,0.092-0.246,0.143-0.279
			c0.053-0.034,0.666,0.398,0.843,0.612c0.176,0.214,0.379,0.607,0.412,0.676c0.03,0.068,0.517,0.104,0.625,0.024
			c0.106-0.081,0.23-0.059,0.274,0.044c0,0,0,0,0.152-0.028c0.529-0.082,0.529-0.082,0.529-0.082
			c0.253,0.272,0.324,0.508,0.318,0.564c-0.004,0.051,0.153,0.273,0.258,0.296c0.104,0.025,0.18,0.373,0.21,0.458
			c0.03,0.084,0.333,0.606,0.396,0.825c0.062,0.219,0.32,0.646,0.383,0.759c0.06,0.115,0.112,0.447,0.112,0.538
			c0,0.09,0.194,0.269,0.315,0.26c0.12-0.007,0.363-0.77,0.421-1.053c0.056-0.284,0.251-0.516,0.307-0.516s0.1-0.161,0.1-0.221
			c0-0.058,0.308-0.054,0.335-0.13c0.026-0.079,0.119-0.58,0.229-0.657c0.11-0.077,0.499-0.333,0.637-0.379
			c0.137-0.047,0.486,0.254,0.563,0.394c0.079,0.14,0.147,0.5,0.118,0.558c-0.029,0.058,0.184,0.366,0.372,0.36
			c0.185-0.006,0.244,0.235,0.249,0.323c0.009,0.088,0.252,0.337,0.301,0.448c0.048,0.111,0.035,0.415,0.003,0.485
			c-0.035,0.069-0.012,0.466,0.023,0.58c0.036,0.109,0.608,0.69,0.821,0.866c0.217,0.175,0.315-0.358,0.205-0.524
			c-0.108-0.167-0.482-0.554-0.569-0.667c-0.088-0.117-0.104-0.582-0.07-0.71c0.032-0.13,0.327,0.072,0.449,0.165
			c0.123,0.094,0.282,0.302,0.287,0.373c0.004,0.07,0.771-0.359,0.797-0.827c0.027-0.466,0.283-0.992,0.308-1.113
			c0.025-0.124-0.075-0.293-0.14-0.298c-0.065-0.006,0.114-0.355,0.327-0.351c0.216,0.007,0.734-0.57,0.855-0.798
			c0.123-0.229,0.37-0.417,0.397-0.446c0.03-0.027,0.201-0.568,0.232-0.792c0.029-0.224-0.127-0.573-0.145-0.689
			c-0.02-0.115-0.205-0.381-0.253-0.465c-0.047-0.083-0.092-0.397-0.062-0.456c0.027-0.058,0.222-0.12,0.242-0.171
			c0.021-0.053,0.242-0.29,0.227-0.395c-0.017-0.104,0.139,0.135,0.239,0.222c0.101,0.086,0.212,0.642,0.337,0.703
			c0.124,0.061,0.634-0.589,0.571-1.009c-0.062-0.42,0.147-0.957,0.271-1.005c0.092-0.036,0.332-0.375,0.495-0.62
			c-1.12-3.232-2.978-6.121-5.372-8.465c-0.029,0.002-0.058,0.003-0.084-0.002c-0.187-0.041-0.187-0.041-0.187-0.041
			c-0.314-0.066-0.495-0.401-0.441-0.479c0.018-0.025,0.014-0.08-0.003-0.147c-0.174-0.157-0.352-0.311-0.534-0.463
			c-0.146-0.004-0.302,0-0.395-0.004c-0.187-0.006-0.594-0.14-0.666-0.213c-0.074-0.072-0.319,0.064-0.331,0.2
			c-0.018,0.136-0.445,0.198-0.483,0.302c-0.044,0.102-0.263,0.11-0.306,0.052c-0.043-0.058-0.439,0.14-0.635,0.168
			c-0.198,0.028-0.565,0.188-0.652,0.227c-0.088,0.04-0.297,0.243-0.332,0.328c-0.032,0.085-0.286,0.227-0.366,0.259
			c-0.082,0.032-0.065,0.399,0.039,0.452c0.104,0.05-0.195-0.044-0.325-0.113c-0.135-0.065-0.28,0.158-0.321,0.235
			c-0.043,0.077-0.164-0.047-0.158-0.156c0.005-0.112-0.325-0.2-0.369-0.112c-0.045,0.088-0.273-0.028-0.368-0.079
			c-0.097-0.05-0.507,0.378-0.658,0.532c-0.152,0.153-0.88,0.272-1.017,0.214c-0.136-0.057-0.271,0.322-0.153,0.348
			c0.113,0.023-0.297-0.019-0.521,0.002c-0.227,0.022-0.884,0.285-1.04,0.402c-0.159,0.117-0.284-0.026-0.284-0.116
			s-0.252-0.173-0.326-0.199c-0.073-0.025-0.221,0.493-0.349,0.592c-0.132,0.102-0.288-0.404-0.595-0.486s-0.787-0.379-0.924-0.414
			c-0.135-0.037-0.409-0.323-0.486-0.406c-0.076-0.083-0.47-0.151-0.596-0.151s-0.532,0.233-0.64,0.324
			c-0.112,0.093-0.274,0.074-0.329,0.107c-0.054,0.032-0.515,0.483-0.691,0.624c-0.179,0.141-0.491,0.748-0.591,0.892
			c-0.104,0.144-0.248,0.171-0.308,0.175c-0.06,0.003-0.108,0.165-0.108,0.223c0,0.061-0.528,0.335-0.583,0.575
			c-0.056,0.239,0.051,0.787,0.051,0.981c0,0.194,0.196,0.581,0.343,0.586c0.145,0.007,0.069,0.331,0.031,0.422
			c-0.039,0.091,0.092,0.19,0.087,0.268c-0.003,0.077-0.37,0.185-0.482,0.229c-0.115,0.042-0.297,0.298-0.322,0.393
			c-0.02,0.084-0.372,0.143-0.488,0.254c0.029-0.081,0.068-0.192,0.1-0.254c0.068-0.128-0.026-0.352-0.081-0.396
			c-0.056-0.047-0.081-0.682-0.17-0.816c-0.089-0.137-0.311-0.367-0.366-0.413c-0.055-0.044,0.038-0.211,0.07-0.282
			c0.033-0.071-0.296-0.111-0.385-0.059c-0.09,0.051-0.139,0.68-0.176,0.851c-0.037,0.172,0.162,0.437,0.217,0.448
			c0.053,0.013,0.038,0.323-0.076,0.333c-0.116,0.012-0.221,0.463-0.162,0.566c0.059,0.103-0.083,0.305-0.15,0.352
			s0.44,0.02,0.674,0.013c0.232-0.006,0.414,0.099,0.39,0.117c-0.025,0.02-0.445,0.082-0.521,0.182
			c-0.075,0.099-0.359,0.292-0.416,0.369c-0.055,0.075,0.094,0.245,0.215,0.237c0.121-0.006,0.257,0.417,0.353,0.497
			c0.094,0.08,0.059,0.299,0.019,0.36c-0.044,0.06-0.611-0.041-0.827,0.013c-0.217,0.053-0.489,0.509-0.507,0.682
			c-0.021,0.172,0.034,0.667,0.064,0.805c0.025,0.137,0.478,0.223,0.569,0.289c0.094,0.066,0.525,0.001,0.617,0.044
			c0.087,0.043,0.38-0.439,0.438-0.661c0.056-0.225,0.519-0.633,0.614-0.786c0.095-0.151,0.592-0.134,0.714-0.214
			c0.123-0.078,0.055,0.376,0.114,0.627c0.058,0.252,0.534,0.221,0.464-0.016c-0.069-0.234,0.047-0.336,0.066-0.251
			c0.021,0.083,0.476,0.271,0.563,0.403c0.085,0.132,0.062,0.414-0.04,0.41c-0.102-0.003-0.105,0.309,0.002,0.342
			c0.106,0.034,0.25-0.351,0.366-0.407c0.115-0.059,0.208-0.298,0.154-0.316c-0.051-0.019,0.098-0.233,0.164-0.162
			c0.065,0.07-0.244-0.467-0.438-0.663c-0.194-0.196-0.057-0.108,0.306,0.194c0,0,0,0,0.251,0.351
			c0.05,0.063,0.113,0.255,0.157,0.326C22.5,16.24,22.5,16.24,22.5,16.24c0.049,0.123,0.092,0.46,0.092,0.551
			c0,0.089,0.196,0.269,0.315,0.261c0.12-0.009,0.211,0.056,0.187,0.061c-0.025,0.004,0.078,0.238,0.198,0.243
			c0.117,0.005,0.17-0.302,0.05-0.308c-0.12-0.007-0.101-0.451-0.117-0.642c-0.014-0.193,0.086-0.352,0.127-0.352
			s-0.004,0.396-0.001,0.488c0.001,0.091,0.051,0.27,0.108,0.399c0,0,0,0,0.124,0.093c0.274,0.212,0.274,0.212,0.274,0.212
			c0.395-0.117,0.926-0.027,0.903,0.054c-0.021,0.082,0.292,0.1,0.312-0.031c0.019-0.128,0.033,0.004,0.033,0.096
			c0,0.089-0.26,0.441-0.302,0.604c-0.044,0.162-0.955,0.052-1.347,0.021c-0.393-0.028-0.971,0.104-1.016,0.222
			c-0.043,0.117-0.656-0.27-0.937-0.387c-0.282-0.12-0.501-0.548-0.559-0.603c-0.059-0.057,0.048-0.195,0.022-0.278
			c-0.028-0.087-0.669-0.104-0.854-0.034c-0.188,0.068-1.148,0.17-1.376,0.27c-0.226,0.102-0.569-0.006-0.675-0.025
			c-0.107-0.019-0.361,0.295-0.489,0.352c-0.131,0.056-0.293,0.5-0.364,0.989c0,0,0,0-0.175,0.339
			c-0.113,0.218-0.113,0.218-0.113,0.218c-0.317,0.241-0.668,1.046-0.772,1.208c-0.102,0.162-0.185,1.321-0.185,1.711
			c0,0.39,0.34,1.215,0.437,1.443c0.097,0.229,0.685,0.733,0.881,0.854c0.197,0.117,0.836,0.133,1.046,0.133
			c0.208,0,0.448-0.198,0.528-0.442c0,0,0,0,0.308,0.031c0.141,0.015,0.141,0.015,0.141,0.015c0.007,0.172,0.46,0.309,0.572,0.37
			c0.11,0.062,0.41,0.016,0.498-0.011c0.089-0.026,0.188,0.774,0.124,1.007c-0.063,0.231,0.158,1.044,0.223,1.289
			c0.066,0.244,0.343,0.911,0.372,1.152c0.026,0.241-0.164,1.038-0.195,1.317c-0.031,0.28,0.349,1.062,0.45,1.33
			c0.098,0.269,0.18,0.847,0.18,0.979c0,0.136,0.416,0.943,0.51,1.276C22.132,33.05,23.174,33.132,23.453,32.969z M41.433,23.064
			c0.029,0.061,0.291-0.147,0.447-0.171c0.157-0.025,0.257-0.447,0.134-0.478c-0.125-0.034-0.28-0.356-0.368-0.397
			c-0.089-0.039-0.263,0.141-0.254,0.268c0.006,0.128-0.287,0.18-0.343,0.288c-0.055,0.105-0.052,0.183,0.01,0.172
			C41.118,22.734,41.407,23.007,41.433,23.064z M41.112,25.357c0.079-0.029-0.009-0.447-0.171-0.482
			c-0.165-0.032-0.614,0.549-0.53,0.885c0.087,0.335,0.182,0.315,0.229,0.244c0.045-0.07,0.315,0.045,0.396,0.073
			c0.077,0.024,0.077-0.056,0-0.18C40.955,25.773,41.035,25.385,41.112,25.357z M40.219,24.949c0.02-0.148,0.047-0.614,0.075-0.706
			c0.023-0.094-0.255-0.359-0.394-0.408c-0.136-0.048-0.575,0.906-0.891,1.075c-0.316,0.171-0.431,0.751-0.348,0.885
			c0.084,0.135,0.743,0.206,0.857,0.307c0.115,0.101,0.244-0.016,0.312-0.033c0.069-0.018,0.048-0.062,0.021-0.079
			c-0.026-0.016,0.23-0.286,0.268-0.458C40.157,25.361,40.201,25.097,40.219,24.949z M38.428,26.537
			c-0.247-0.092-0.536,0.054-0.559,0.147c-0.026,0.097,0.951,0.251,1.273,0.339c0.323,0.089,0.524,0.116,0.451,0.062
			C39.52,27.03,38.674,26.632,38.428,26.537z M40.408,20.192c0.079-0.108-0.107-0.619-0.203-0.502
			c-0.095,0.114-0.024,0.411,0.005,0.517C40.239,20.309,40.331,20.301,40.408,20.192z M40.997,21.287
			c0.057-0.13-0.07-0.276-0.282-0.321c-0.21-0.044-0.18,0.591-0.086,0.673C40.719,21.716,40.938,21.42,40.997,21.287z M42.093,25.22
			c0.254,0.179,0.816,0.097,0.835-0.245C42.679,24.811,42.073,24.839,42.093,25.22z M41.958,17.438
			c-0.106,0.074-0.16,0.26-0.128,0.336c-0.015-0.001-0.028-0.001-0.044-0.001c-0.083,0-0.094,0.333-0.005,0.39
			c0.088,0.056,0.301-0.26,0.412-0.335s0.335-0.121,0.368-0.098c0.035,0.025,0.23-0.034,0.437-0.13
			c0.036-0.018,0.077-0.072,0.123-0.148c-0.05-0.243-0.108-0.482-0.167-0.723c-0.104,0.078-0.224,0.161-0.277,0.209
			C42.565,17.039,42.094,17.344,41.958,17.438z M36.194,24.133c0,0,0.001,0,0.003,0.001C36.153,24.103,36.147,24.1,36.194,24.133z
			 M37.765,25.597c-0.093-0.207-0.395-0.555-0.672-0.775c0,0,0,0-0.105-0.174c-0.115-0.191-0.115-0.191-0.115-0.191
			c-0.104-0.209-0.416-0.371-0.444-0.432c-0.025-0.062-0.125,0.181-0.231,0.111c0.055,0.039,0.171,0.121,0.336,0.238
			c0.293,0.212,0.859,1.631,0.986,1.73C37.647,26.202,37.855,25.804,37.765,25.597z M33.261,23.301
			c-0.077,0.162,0.418,0.502,0.457,0.425c0.041-0.079-0.064-0.472-0.153-0.56C33.479,23.081,33.34,23.142,33.261,23.301z
			 M26.67,30.891c0.021,0.169,0.364,0.302,0.462,0.274c0.103-0.026,0.378-0.538,0.416-0.684c0.039-0.149,0.07-0.465,0.07-0.54
			c0-0.073,0.045-0.244,0.085-0.265c0.036-0.02,0.101-0.194,0.139-0.384c0.038-0.194-0.206-1.091-0.214-1.247
			c-0.006-0.158-0.184,0.08-0.229,0.24c-0.049,0.159-0.492,0.483-0.594,0.619c-0.098,0.135-0.207,0.594-0.168,0.672
			c0.037,0.079-0.039,0.391-0.084,0.477C26.511,30.141,26.653,30.721,26.67,30.891z M10.591,37.091c0.099,0,0.195,0,0.299,0
			C10.943,36.767,10.574,36.82,10.591,37.091z M18.583,3.343c-0.125,0.015-0.451-0.05-0.507-0.11
			c-0.055-0.059-0.544-0.112-0.684-0.053c-0.141,0.059-0.044-0.343,0.152-0.386c0.195-0.044,0.029-0.321-0.179-0.321
			c-0.21-0.001-0.723-0.078-0.843-0.05c-0.122,0.025-0.358-0.084-0.443-0.097c-0.087-0.013-0.704,0.185-0.996,0.169
			c-0.293-0.012-1.01,0.017-1.165,0.061C13.759,2.596,13.647,2.9,13.67,3.007c0.022,0.109-0.694,0.106-0.919,0.11
			c-0.227,0.003-1.429,0.259-1.743,0.432c-0.314,0.171-0.559,0.613-0.456,0.623c0.104,0.008-0.174,0.258-0.343,0.317
			c-0.168,0.058-0.57,0.083-0.667,0.178c-0.094,0.094,0.102,0.159,0.14,0.224c0.037,0.062,0.149-0.056,0.256,0.005
			c0.105,0.06,0.456,0.088,0.547,0.124c0.094,0.037-0.296,0.111-0.48,0.125c-0.183,0.012-0.142,0.373,0.007,0.422
			c0.15,0.051,0.536,0.104,0.575,0.042c0.04-0.062,0.458,0.068,0.648,0.091c0.187,0.02,0.333,0.493,0.389,0.595
			c0.058,0.102,0.071,0.462,0.055,0.566c-0.012,0.103,0.334,0.293,0.397,0.227c0.06-0.066,0.042,0.163-0.096,0.151
			c-0.137-0.013-0.047,0.388,0.124,0.445c0.169,0.057,0.053,0.303-0.044,0.378c-0.1,0.073-0.046,0.309-0.147,0.394
			c-0.1,0.083,0.359,0.878,0.355,1.289c-0.002,0.408,0.252,0.743,0.351,0.743c0.098,0,0.433,0.082,0.479,0.17
			c0.043,0.087,0.206-0.062,0.271-0.128c0.062-0.066,0.2-0.264,0.303-0.437c0.103-0.174,0.333-0.994,0.364-1.082
			c0.032-0.088,0.417-0.033,0.505-0.078c0.087-0.045,0.339-0.244,0.411-0.303c0.072-0.059,0.622-0.292,0.773-0.4
			c0.148-0.107,0.398-0.573,0.515-0.672c0.118-0.1-0.059-0.071-0.207-0.167c-0.145-0.096-0.081-0.213-0.038-0.257
			c0.041-0.046,0.485,0.073,0.637,0.132c0.153,0.061,0.444-0.15,0.334-0.232c-0.114-0.081-0.055-0.078,0-0.043
			c0.052,0.033,0.11-0.27,0.052-0.326c-0.059-0.059,0.448-0.429,0.358-0.778c-0.088-0.349,0.139-0.708,0.274-0.712
			c0.137-0.004,0.097-0.395-0.066-0.431c-0.163-0.036-0.01-0.072,0.051-0.128c0.061-0.055,0.138-0.404,0.103-0.47
			c-0.037-0.068,0.25-0.143,0.298-0.223c0.052-0.079,0.378-0.235,0.494-0.261C18.646,3.635,18.708,3.329,18.583,3.343z
			 M21.424,3.627c-0.155-0.053-0.47,0.12-0.431,0.217c0.042,0.099-0.255-0.125-0.463-0.018c-0.208,0.109-0.265,0.472-0.169,0.52
			c0.095,0.047,0.165,0.336,0.167,0.392c0.003,0.058,0.403,0.016,0.506-0.068c0.1-0.084,0.087,0.293-0.012,0.395
			c-0.102,0.102,0.036,0.307,0.147,0.323c0.11,0.016,0.263,0.278,0.377,0.275c0.114-0.002,0.31-0.442,0.354-0.609
			c0.045-0.163,0.426-0.034,0.601,0.019c0.174,0.051,0.24-0.607,0.05-0.707c-0.188-0.098-0.425-0.049-0.505-0.125
			c-0.077-0.076-0.21-0.146-0.298-0.159C21.66,4.07,21.578,3.681,21.424,3.627z M22.949,3.943c0.307,0.043,0.652-0.209,0.729-0.282
			c0.076-0.071-0.853-0.26-1.207-0.271c-0.353-0.011-0.639,0.037-0.634,0.106C21.844,3.565,22.64,3.898,22.949,3.943z
			 M17.333,12.268c-0.08-0.035-0.125,0.27-0.106,0.385c0.019,0.116,0.302,0.105,0.423,0.085c0.121-0.02,0.214-0.118,0.21-0.219
			c-0.007-0.099-0.178-0.553-0.246-0.553C17.545,11.966,17.415,12.299,17.333,12.268z M18.246,8.727
			c-0.063-0.112-0.547-0.098-0.665-0.106c-0.117-0.006-0.479-0.126-0.547-0.204c-0.067-0.076-0.121,0.297-0.23,0.346
			c-0.111,0.048,0.055,0.12,0.1,0.08c0.043-0.039-0.004,0.193-0.054,0.272c-0.049,0.08,0.322,0.135,0.365,0.256
			c0.04,0.12,0.193,0.198,0.34,0.176c0.146-0.025,0.436-0.175,0.539-0.185C18.196,9.352,18.309,8.838,18.246,8.727z M28.382,5.962
			c0.166-0.167,0.849-0.391,0.926-0.564c0.077-0.171-0.047-0.311-0.117-0.311c-0.068,0-0.154,0.086-0.169,0.113
			c-0.018,0.029-0.801,0.213-1.04,0.329c-0.242,0.115-0.52,0.295-0.62,0.397c-0.102,0.102-0.268,0.878-0.327,0.966
			c-0.056,0.087,0.261,0.403,0.401,0.491c0.142,0.086,0.336,0.041,0.392,0.025c0.054-0.018-0.075-0.56-0.146-0.749
			C27.605,6.471,28.217,6.13,28.382,5.962z M27.545,3.94c0.257,0.255,0.398-0.115,0.681-0.078
			C28.221,3.343,27.519,3.521,27.545,3.94z M32.554,4.036c-0.007,0.096,0.713,0.172,0.925,0.136
			c0.209-0.038-0.046-0.366-0.354-0.346C32.82,3.847,32.563,3.941,32.554,4.036z M6.458,9.38C6.382,9.451,6.449,9.805,6.593,9.815
			c0.144,0.01,0.375-0.534,0.551-0.424C7.321,9.5,7.441,9.542,7.412,9.485C7.381,9.428,6.879,9.208,6.816,9.166
			C6.754,9.128,6.536,9.312,6.458,9.38z M8.302,21.349c0,0.058,0.314,0.051,0.365-0.047c0.05-0.095,0.023-0.174-0.061-0.174
			C8.523,21.128,8.302,21.287,8.302,21.349z M6.903,20.832c0.151-0.029,0.081,0.215,0.116,0.302
			c0.037,0.086,0.397,0.156,0.469,0.216c0.072,0.058,0.258-0.111,0.402-0.092c0.144,0.019-0.046-0.5-0.29-0.485
			c-0.241,0.018-0.433-0.219-0.489-0.248c-0.06-0.025-0.337-0.196-0.419-0.26c-0.079-0.066-0.694-0.12-0.904-0.12
			s-0.439,0.215-0.471,0.284c-0.035,0.071,0.331,0.118,0.434,0.062c0.105-0.056,0.592,0.063,0.692,0.18
			C6.544,20.788,6.752,20.859,6.903,20.832z M6.245,21.349c0,0.058,0.318,0.022,0.393,0.023c0.078,0.003,0.075-0.05-0.005-0.114
			C6.553,21.194,6.245,21.287,6.245,21.349z M6.47,19.715c-0.083-0.033-0.149,0.097-0.149,0.158s0.046,0.112,0.101,0.112
			C6.478,19.985,6.553,19.749,6.47,19.715z M7.135,19.766c-0.028-0.061-0.164-0.11-0.205-0.11s-0.071,0.105-0.063,0.232
			C6.875,20.016,7.162,19.826,7.135,19.766z M7.613,20.504c0.129-0.063,0.144-0.216,0.069-0.208
			c-0.077,0.007-0.217-0.221-0.301-0.254c-0.082-0.034-0.15,0.137-0.15,0.212c0,0.074,0.047,0.125,0.103,0.111
			C7.392,20.351,7.484,20.563,7.613,20.504z M43.048,25.487c-0.065,0.032-0.386,0.071-0.428,0.009
			c-0.044-0.063-0.106,0.13-0.174,0.16c-0.068,0.031-0.031,0.199,0.07,0.146c0.071-0.035,0.373,0.133,0.62,0.287
			c0.05-0.242,0.092-0.489,0.133-0.737C43.181,25.399,43.089,25.464,43.048,25.487z"/>
		<defs>
			<filter id="Adobe_OpacityMaskFilter" filterUnits="userSpaceOnUse" x="5.294" y="0.249" width="32.771" height="27.547">
				
					<feColorMatrix  type="matrix" values="-1 0 0 0 1  0 -1 0 0 1  0 0 -1 0 1  0 0 0 1 0" color-interpolation-filters="sRGB" result="source"/>
				<feFlood  style="flood-color:white;flood-opacity:1" result="back"/>
				<feBlend  in="source" in2="back" mode="normal"/>
			</filter>
		</defs>
		<mask maskUnits="userSpaceOnUse" x="5.294" y="0.249" width="32.771" height="27.547" id="SVGID_3_">
			<g filter="url(#Adobe_OpacityMaskFilter)">
				<radialGradient id="SVGID_4_" cx="21.4429" cy="3.5732" r="29.0057" gradientUnits="userSpaceOnUse">
					<stop  offset="0" style="stop-color:#000000"/>
					<stop  offset="0.1042" style="stop-color:#272727"/>
					<stop  offset="0.2914" style="stop-color:#686868"/>
					<stop  offset="0.47" style="stop-color:#9E9E9E"/>
					<stop  offset="0.6349" style="stop-color:#C8C8C8"/>
					<stop  offset="0.7833" style="stop-color:#E6E6E6"/>
					<stop  offset="0.91" style="stop-color:#F8F8F8"/>
					<stop  offset="1" style="stop-color:#FFFFFF"/>
				</radialGradient>
				<rect x="2.445" y="-3.076" fill="url(#SVGID_4_)" width="40.37" height="34.195"/>
			</g>
		</mask>
		<ellipse opacity="0.5" mask="url(#SVGID_3_)" fill="#E1EBF4" cx="21.68" cy="14.022" rx="16.386" ry="13.774"/>
	</g>
</g>
</svg>
