<?xml version="1.0" encoding="utf-8"?>
<!-- Generator: Adobe Illustrator 16.0.0, SVG Export Plug-In . SVG Version: 6.00 Build 0)  -->
<!DOCTYPE svg PUBLIC "-//W3C//DTD SVG 1.1//EN" "http://www.w3.org/Graphics/SVG/1.1/DTD/svg11.dtd">
<svg version="1.1" id="圖層_1" xmlns="http://www.w3.org/2000/svg" xmlns:xlink="http://www.w3.org/1999/xlink" x="0px" y="0px"
	 width="100px" height="100px" viewBox="0 0 100 100" enable-background="new 0 0 100 100" xml:space="preserve">
<path fill="#414957" d="M98.856,44.861c-0.04-1.806-1.504-3.255-3.312-3.255H94.24H6.299H4.733c-1.838,0-3.327,1.494-3.327,3.327
	v1.307v52.965h97.451V46.482l0.015,0.018v-1.566C98.871,44.906,98.856,44.883,98.856,44.861z"/>
<path fill="#3D99D2" d="M92.686,10.965c-0.09-1.764-1.519-3.172-3.302-3.172h-1.299H32.131V97.82h60.555V12.654l0.025,0.032V11.12
	C92.711,11.063,92.686,11.018,92.686,10.965z"/>
<rect x="39.46" y="57.703" fill="#F5F1D9" width="45.892" height="4.586"/>
<rect x="39.46" y="32.453" fill="#F5F1D9" width="45.892" height="23.851"/>
<rect x="19.841" y="7.793" fill="#3D99D2" width="60.57" height="90.027"/>
<rect x="27.185" y="57.703" fill="#F5F1D9" width="45.892" height="4.586"/>
<rect x="27.185" y="32.453" fill="#F5F1D9" width="45.892" height="23.851"/>
<rect x="14.462" y="34.679" fill="#FFFFFF" width="45.889" height="4.586"/>
<path fill="#398EC6" d="M64.354,1.348H63.05H12.022h-1.569c-1.836,0-3.322,1.491-3.322,3.327v1.302v85.404h60.556V6.242V4.673
	C67.687,2.834,66.192,1.348,64.354,1.348z"/>
<rect x="14.462" y="51.269" fill="#F5F1D9" width="45.889" height="4.573"/>
<rect x="14.462" y="26.001" fill="#F5F1D9" width="45.889" height="23.858"/>
<rect x="5.133" y="63.216" fill="#414957" width="90.001" height="35.989"/>
<path fill="#E8E3B4" d="M28.704,78.858c0,0.672,0,1.204,0,1.204l-7.437-4.751l-7.441,4.751c0,0,0-0.532,0-1.204V64.42
	c0-0.657,0.544-1.204,1.204-1.204h12.46c0.672,0,1.214,0.547,1.214,1.204V78.858z"/>
<rect x="18.769" y="65.932" fill="#414957" width="5.108" height="1.044"/>
</svg>
