<?xml version="1.0" encoding="utf-8"?>
<!-- Generator: Adobe Illustrator 16.0.0, SVG Export Plug-In . SVG Version: 6.00 Build 0)  -->
<!DOCTYPE svg PUBLIC "-//W3C//DTD SVG 1.1//EN" "http://www.w3.org/Graphics/SVG/1.1/DTD/svg11.dtd">
<svg version="1.1" id="圖層_1" xmlns="http://www.w3.org/2000/svg" xmlns:xlink="http://www.w3.org/1999/xlink" x="0px" y="0px"
	 width="31.235px" height="33.473px" viewBox="0 0 31.235 33.473" enable-background="new 0 0 31.235 33.473" xml:space="preserve">
<g>
	<path fill="#72A87C" d="M0,33.473h31.235V3.133H0V33.473z M13.514,18.954c-2.151-0.484-3.667-1.162-4.547-2.031
		c-0.883-0.871-1.326-1.92-1.326-3.143c0-0.811,0.174-1.549,0.515-2.207c0.341-0.656,0.826-1.229,1.444-1.707
		c0.797-0.617,1.686-1.043,2.666-1.277c0.592-0.148,1.463-0.26,2.614-0.328V6.525h1.635v1.764c1.823,0.107,3.254,0.455,4.295,1.043
		c1.89,0.93,2.872,2.439,2.938,4.525h-4.438c-0.088-0.771-0.254-1.344-0.502-1.697c-0.418-0.621-1.186-0.961-2.294-1.021v4.973
		c2.661,0.713,4.454,1.344,5.372,1.895c1.509,0.91,2.267,2.197,2.267,3.855c0,2.193-1.041,3.781-3.124,4.779
		c-1.266,0.604-2.771,0.961-4.515,1.062v2.629H14.88v-2.604c-2.216-0.186-3.871-0.564-4.962-1.113
		c-1.923-1.002-2.865-2.707-2.836-5.115h4.558c0.157,1.092,0.376,1.83,0.656,2.205c0.438,0.584,1.3,0.963,2.584,1.135v-5.574
		L13.514,18.954z"/>
	<path fill="#72A87C" d="M14.88,11.174c-0.983,0.01-1.706,0.217-2.177,0.602c-0.475,0.391-0.71,0.912-0.71,1.584
		c0,0.73,0.353,1.312,1.063,1.736c0.391,0.236,0.997,0.454,1.823,0.651V11.174z"/>
	<path fill="#72A87C" d="M19.482,22.258c0-0.75-0.33-1.344-0.982-1.773c-0.393-0.254-1.051-0.518-1.985-0.785v5.102
		c0.874-0.086,1.517-0.242,1.917-0.469C19.133,23.93,19.482,23.239,19.482,22.258z"/>
</g>
<g>
	<path fill="#C1D47D" d="M21.887,18.006c-0.918-0.551-2.711-1.182-5.372-1.895v-4.973c1.108,0.061,1.876,0.4,2.294,1.021
		c0.248,0.354,0.414,0.926,0.502,1.697h4.438c-0.066-2.086-1.049-3.596-2.938-4.525c-1.041-0.588-2.472-0.936-4.295-1.043V6.525
		H14.88V8.26c-1.151,0.068-2.022,0.18-2.614,0.328c-0.98,0.234-1.869,0.66-2.666,1.277c-0.618,0.479-1.104,1.051-1.444,1.707
		c-0.341,0.658-0.515,1.396-0.515,2.207c0,1.223,0.443,2.272,1.326,3.143c0.88,0.869,2.396,1.547,4.547,2.031l1.366,0.312v5.574
		c-1.284-0.172-2.146-0.551-2.584-1.135c-0.28-0.375-0.499-1.113-0.656-2.205H7.082c-0.029,2.408,0.913,4.113,2.836,5.115
		c1.091,0.549,2.746,0.928,4.962,1.113v2.604h1.635v-2.629c1.743-0.102,3.249-0.459,4.515-1.062
		c2.083-0.998,3.124-2.586,3.124-4.779C24.153,20.204,23.396,18.917,21.887,18.006z M14.88,15.747
		c-0.826-0.197-1.433-0.415-1.823-0.651c-0.711-0.424-1.063-1.006-1.063-1.736c0-0.672,0.235-1.193,0.71-1.584
		c0.471-0.385,1.193-0.592,2.177-0.602V15.747z M18.432,24.333c-0.4,0.227-1.043,0.383-1.917,0.469V19.7
		c0.935,0.268,1.593,0.531,1.985,0.785c0.652,0.43,0.982,1.023,0.982,1.773C19.482,23.239,19.133,23.93,18.432,24.333z"/>
	<path fill="#C1D47D" d="M29.934,0h-0.51H1.912H1.299C0.58,0,0,0.584,0,1.301v0.51v1.322h31.234V1.914V1.301
		C31.234,0.582,30.652,0,29.934,0z"/>
</g>
</svg>
