<?xml version="1.0" encoding="utf-8"?>
<!-- Generator: Adobe Illustrator 16.0.0, SVG Export Plug-In . SVG Version: 6.00 Build 0)  -->
<!DOCTYPE svg PUBLIC "-//W3C//DTD SVG 1.1//EN" "http://www.w3.org/Graphics/SVG/1.1/DTD/svg11.dtd">
<svg version="1.1" id="圖層_1" xmlns="http://www.w3.org/2000/svg" xmlns:xlink="http://www.w3.org/1999/xlink" x="0px" y="0px"
	 width="36.174px" height="27.994px" viewBox="0 0 36.174 27.994" enable-background="new 0 0 36.174 27.994" xml:space="preserve">
<g>
	<g>
		<g>
			<path fill="#EDBC9B" d="M34.542,26.659c0,0.734-0.538,1.335-1.192,1.335H1.191C0.537,27.994,0,27.394,0,26.659V6.199
				c0-0.734,0.537-1.335,1.191-1.335H33.35c0.654,0,1.192,0.601,1.192,1.335V26.659z"/>
		</g>
		<g>
			<g>
				<path fill="#90400C" d="M18.481,19.407c-0.591,0.467-1.562,0.474-2.159,0.014L0,6.824v2.669L16.323,22.09
					c0.597,0.458,1.568,0.453,2.159-0.014L34.542,9.396V6.727L18.481,19.407z"/>
			</g>
			<path fill="#E7E7E7" d="M33.35,4.864H1.191C0.537,4.864,0,5.465,0,6.199v0.625l16.323,12.597c0.597,0.46,1.568,0.453,2.159-0.014
				l16.061-12.68V6.199C34.542,5.465,34.004,4.864,33.35,4.864z"/>
		</g>
	</g>
	<g>
		<g>
			<path fill="#CD9979" d="M33.35,4.864H17.434v23.13H33.35c0.654,0,1.192-0.601,1.192-1.335V6.199
				C34.542,5.465,34.004,4.864,33.35,4.864z"/>
		</g>
		<g>
			<g>
				<path fill="#7A320A" d="M18.481,19.407c-0.288,0.229-0.667,0.344-1.047,0.353v2.669c0.381-0.009,0.76-0.124,1.047-0.353
					L34.542,9.396V6.727L18.481,19.407z"/>
			</g>
			<path fill="#D1CDCC" d="M33.35,4.864H17.434V19.76c0.381-0.009,0.76-0.124,1.047-0.353l16.061-12.68V6.199
				C34.542,5.465,34.004,4.864,33.35,4.864z"/>
		</g>
	</g>
	<g>
		<path fill="#EF5713" d="M36.174,6.912c0,3.815-3.094,6.91-6.91,6.91c-3.817,0-6.912-3.095-6.912-6.91
			C22.352,3.093,25.447,0,29.264,0C33.081,0,36.174,3.093,36.174,6.912z"/>
		<g>
			<path fill="#FFFFF1" d="M33.331,5.424c0.698,0,1.266,0.567,1.266,1.265l0,0c0,0.698-0.567,1.265-1.266,1.265h-8.326
				c-0.698,0-1.264-0.566-1.264-1.265l0,0c0-0.698,0.565-1.265,1.264-1.265H33.331z"/>
			<path fill="#FFFFF1" d="M30.432,10.854c0,0.698-0.566,1.263-1.263,1.263l0,0c-0.699,0-1.267-0.565-1.267-1.263V2.525
				c0-0.695,0.567-1.264,1.267-1.264l0,0c0.696,0,1.263,0.568,1.263,1.264V10.854z"/>
		</g>
	</g>
</g>
</svg>
