<?xml version="1.0" encoding="utf-8"?>
<!-- Generator: Adobe Illustrator 16.0.0, SVG Export Plug-In . SVG Version: 6.00 Build 0)  -->
<!DOCTYPE svg PUBLIC "-//W3C//DTD SVG 1.1//EN" "http://www.w3.org/Graphics/SVG/1.1/DTD/svg11.dtd">
<svg version="1.1" id="圖層_1" xmlns="http://www.w3.org/2000/svg" xmlns:xlink="http://www.w3.org/1999/xlink" x="0px" y="0px"
	 width="40.534px" height="38.261px" viewBox="0 0 40.534 38.261" enable-background="new 0 0 40.534 38.261" xml:space="preserve">
<path fill="#C2C015" d="M36.617,20.059l-0.058-0.453L33.934,2.592l-0.069-0.543c-0.08-0.639-0.661-1.08-1.299-1.002l-0.448,0.061
	L12.788,3.861l-0.768,0.121c-0.464,0.213-0.761,0.695-0.674,1.23l2.671,17.374l0.07,0.543l0.149,1.15l1.075-0.16
	c0.025,0,0.051,0.016,0.078,0.014l0.447-0.059l-0.03-0.023l19.271-2.623l-0.002,0.008l0.54-0.07c0.039-0.006,0.066-0.031,0.1-0.039
	l1.049-0.131L36.617,20.059z"/>
<g>
	<polygon fill="#E3DB79" points="16.101,10.418 30.776,8.332 29.861,1.488 29.765,1.277 14.912,3.391 15.162,3.594 	"/>
	<path fill="#E3DB79" d="M11.159,30.932c-2.018,0.262-3.438,2.107-3.176,4.121c0.258,2.016,2.104,3.438,4.12,3.178
		s3.438-2.107,3.176-4.119C15.019,32.094,13.176,30.672,11.159,30.932z M11.853,36.282c-0.939,0.121-1.8-0.543-1.92-1.48
		c-0.123-0.936,0.539-1.801,1.479-1.92c0.938-0.125,1.798,0.539,1.92,1.48C13.451,35.301,12.791,36.157,11.853,36.282z"/>
	<path fill="#E3DB79" d="M40.516,26.141l-0.084-1.078c-0.087-0.664-0.628-1.135-1.268-1.203c-0.106-0.023-0.215-0.037-0.326-0.021
		l-0.55,0.072l-26.196,3.391L8.078,2.162V2.088V1.416C8.078,0.633,7.44,0,6.657,0H6.1H2.092h-0.67C0.637,0,0,0.637,0,1.42v0.553
		v0.242h5.08l4.369,25.43l-0.065,0.008L8.72,27.739c-0.78,0.1-1.327,0.812-1.229,1.594l0.071,0.961l0.031,0.24l32.94-4.266
		L40.516,26.141z"/>
</g>
</svg>
