<?xml version="1.0" encoding="utf-8"?>
<!-- Generator: Adobe Illustrator 16.0.0, SVG Export Plug-In . SVG Version: 6.00 Build 0)  -->
<!DOCTYPE svg PUBLIC "-//W3C//DTD SVG 1.1//EN" "http://www.w3.org/Graphics/SVG/1.1/DTD/svg11.dtd">
<svg version="1.1" id="圖層_1" xmlns="http://www.w3.org/2000/svg" xmlns:xlink="http://www.w3.org/1999/xlink" x="0px" y="0px"
	 width="37.942px" height="33.479px" viewBox="0 0 37.942 33.479" enable-background="new 0 0 37.942 33.479" xml:space="preserve">
<path fill="#CFD46D" d="M24.887,12.424h2.419L22.871,0.908l-0.022-0.016c-0.162-0.475-0.582-0.811-1.098-0.861L21.742,0
	l-4.927,0.006L16.824,0h-0.613c-0.014,0-0.025,0.008-0.04,0.008c-0.516,0.016-0.954,0.328-1.149,0.777L15.01,0.812l-4.497,11.611
	h2.419l3.694-9.537h4.589L24.887,12.424z"/>
<path fill="#94B331" d="M36.641,11.535h-0.509H1.913H1.301C0.582,11.535,0,12.117,0,12.836v0.508v0.221l5.332,19.915h0.353h0.857
	h11.545h1.77h11.531h0.72h0.491l5.344-19.915v-0.117v-0.613C37.942,12.117,37.358,11.535,36.641,11.535z M18.087,13.564v5.444H2.668
	l-1.457-5.444H18.087z M6.214,32.256l-1.357-5.07h13.23v5.07H6.214z M31.717,32.256h-11.86v-5.07h13.222L31.717,32.256z
	 M35.271,19.008H19.856v-5.444h16.876L35.271,19.008z"/>
</svg>
