<?xml version="1.0" encoding="utf-8"?>
<!-- Generator: Adobe Illustrator 16.0.0, SVG Export Plug-In . SVG Version: 6.00 Build 0)  -->
<!DOCTYPE svg PUBLIC "-//W3C//DTD SVG 1.1//EN" "http://www.w3.org/Graphics/SVG/1.1/DTD/svg11.dtd">
<svg version="1.1" id="圖層_1" xmlns="http://www.w3.org/2000/svg" xmlns:xlink="http://www.w3.org/1999/xlink" x="0px" y="0px"
	 width="533px" height="612px" viewBox="0 0 533 612" enable-background="new 0 0 533 612" xml:space="preserve">
<g id="Forma_1_1_" enable-background="new    ">
	<g id="Forma_1">
		<g>
			<path fill="#FFEB3B" d="M333.1,343.143c-13.521-12.125-33.652-21.39-59.869-27.555c-18.979-4.359-27.603-9.182-31.581-12.53
				c-4.403-3.624-6.454-8.339-6.454-14.908c-0.064-8.019,2.121-13.255,7.159-17.469c5.376-4.588,13.897-6.82,24.736-6.82h0.611
				c9.444,0,12.64,1.745,17.676,6.163c4.831,4.243,7.97,11.436,9.364,21.825l1.738,10.713l51.59-0.345l-0.46-13.303
				c-1.189-22.447-9.792-40.526-25.651-53.798c-9.751-7.95-18.424-13.435-30.988-16.402l-0.129-28.804l-53.512,0.369l0.226,29.889
				c-11.469,3.223-21.727,8.562-30.568,15.912c-16.513,13.653-24.816,31.381-24.68,52.678c0.107,18.626,6.863,34.428,20.125,47.014
				c12.177,11.406,30.26,19.967,53.728,25.427c22.771,5.339,33.258,10.937,38.019,14.674c5.572,4.405,8.058,9.844,8.058,17.636
				c0,10.239-2.798,17.475-8.831,22.794c-6.377,5.665-15.956,8.593-28.389,8.693c-12.462,0-17.633-2.676-24.015-8.408
				c-6.107-5.296-9.03-12.754-9.205-23.661l-0.447-12.396l-51.42,0.183l-1.408,17.979l0.017,0.506
				c0.56,18.955,9.248,35.807,25.963,50.209c11.515,9.531,21.331,16.087,34.369,19.625l0.221,34.032l53.528-0.144l-0.256-33.976
				c14.237-3.556,26.542-9.882,36.576-18.791c17.451-14.916,26.234-34.27,26.096-57.462
				C355.031,373.26,347.457,356.133,333.1,343.143z M444.684,147.51l31.125-40.989l-53.063-40.319l-33.27,43.222
				c-27.776-14.553-58.994-24.345-91.294-28.281V53.849h43.065V0H190.518v53.849h43.065v27.293C101.694,97.138,0,209.624,0,345.59
				C0,492.491,119.698,612,266.555,612S533,492.488,533,345.59C533,267.029,498.936,196.313,444.684,147.51z M266.781,544.689
				c-109.75,0-199.039-89.316-199.039-199.101c0-109.784,89.289-199.101,199.039-199.101s199.042,89.316,199.042,199.101
				C465.823,455.373,376.531,544.689,266.781,544.689z"/>
		</g>
	</g>
</g>
<g id="Forma_1_拷貝" enable-background="new    ">
	<g id="Forma_1_4_">
		<g>
			<path fill="#01040A" d="M444.684,147.51l31.125-40.989l-53.063-40.319l-33.27,43.222c-27.776-14.553-58.994-24.345-91.294-28.281
				V53.849h43.065V0H190.518v53.849h43.065v27.293C101.694,97.138,0,209.624,0,345.59C0,492.491,119.698,612,266.555,612
				S533,492.488,533,345.59C533,267.029,498.936,196.313,444.684,147.51z M266.781,544.689
				c-109.75,0-199.039-89.316-199.039-199.101c0-109.784,89.289-199.101,199.039-199.101s199.042,89.316,199.042,199.101
				C465.823,455.373,376.531,544.689,266.781,544.689z"/>
		</g>
	</g>
</g>
</svg>
