<?xml version="1.0" encoding="utf-8"?>
<!-- Generator: Adobe Illustrator 16.0.0, SVG Export Plug-In . SVG Version: 6.00 Build 0)  -->
<!DOCTYPE svg PUBLIC "-//W3C//DTD SVG 1.1//EN" "http://www.w3.org/Graphics/SVG/1.1/DTD/svg11.dtd">
<svg version="1.1" id="圖層_1" xmlns="http://www.w3.org/2000/svg" xmlns:xlink="http://www.w3.org/1999/xlink" x="0px" y="0px"
	 width="172.652px" height="306.299px" viewBox="0 0 172.652 306.299" enable-background="new 0 0 172.652 306.299"
	 xml:space="preserve">
<g id="money-timer.psd">
	<g id="Forma_1">
		<g>
			<path fill="#FFD80A" d="M151.196,149.878c-13.226-11.86-32.918-20.922-58.561-26.953c-18.562-4.264-26.996-8.98-30.889-12.255
				c-4.308-3.545-6.312-8.156-6.312-14.582c-0.063-7.844,2.074-12.964,7.003-17.086c5.257-4.487,13.593-6.671,24.194-6.671h0.599
				c9.237,0,12.362,1.707,17.289,6.028c4.724,4.151,7.796,11.186,9.158,21.348l1.698,10.478l50.463-0.337l-0.451-13.011
				c-1.165-21.957-9.577-39.64-25.09-52.62c-9.537-7.776-18.021-13.141-30.309-16.044L109.862,0L57.521,0.361l0.222,29.234
				c-11.217,3.152-21.25,8.375-29.899,15.563C11.692,58.513,3.571,75.852,3.704,96.684c0.105,18.218,6.713,33.674,19.685,45.984
				c11.911,11.157,29.598,19.53,52.551,24.871c22.274,5.222,32.532,10.695,37.188,14.351c5.448,4.311,7.879,9.63,7.879,17.25
				c0,10.014-2.736,17.091-8.639,22.296c-6.238,5.541-15.605,8.402-27.767,8.502c-12.188,0-17.246-2.617-23.489-8.223
				c-5.975-5.18-8.833-12.477-9.004-23.144l-0.438-12.125l-50.293,0.182L0,204.208l0.015,0.496
				c0.548,18.54,9.046,35.022,25.396,49.109c11.262,9.324,20.864,15.738,33.616,19.194l0.216,33.292l52.359-0.142l-0.252-33.231
				c13.926-3.478,25.96-9.667,35.775-18.38c17.07-14.591,25.659-33.518,25.524-56.205
				C172.647,179.336,165.235,162.583,151.196,149.878z"/>
		</g>
	</g>
</g>
</svg>
